<?xml version="1.0" standalone="no"?>
<!DOCTYPE svg PUBLIC "-//W3C//DTD SVG 20010904//EN"
 "http://www.w3.org/TR/2001/REC-SVG-20010904/DTD/svg10.dtd">
<svg version="1.0" xmlns="http://www.w3.org/2000/svg"
 width="2639.000000pt" height="1280.000000pt" viewBox="0 0 2639.000000 1280.000000"
 preserveAspectRatio="xMidYMid meet">

<g transform="translate(0.000000,1280.000000) scale(0.100000,-0.100000)"
fill="#000000" stroke="none">
<path d="M0 6400 l0 -6400 13195 0 13195 0 0 6400 0 6400 -13195 0 -13195 0 0
-6400z m8193 5324 c243 -141 471 -273 507 -294 36 -21 292 -170 570 -330 852
-494 951 -551 1070 -620 135 -79 419 -244 872 -506 l327 -189 1 -586 0 -587
-26 -6 c-14 -4 -43 -18 -64 -31 -30 -19 -41 -33 -46 -61 -9 -50 18 -83 93
-114 40 -16 83 -46 127 -87 l66 -62 34 14 c75 32 113 -19 82 -108 l-17 -48 30
-35 c17 -19 31 -46 31 -60 0 -39 25 -88 54 -107 39 -26 33 -58 -35 -182 -97
-176 -160 -333 -237 -585 -8 -27 -10 -5 -6 100 11 268 22 411 35 426 10 12 9
19 -8 35 -15 16 -24 18 -45 10 -23 -9 -25 -13 -21 -58 5 -55 -49 -648 -60
-659 -10 -10 -41 451 -39 584 2 163 9 212 44 279 l22 42 -20 28 c-12 16 -43
36 -70 46 -54 20 -84 43 -84 63 0 8 -34 39 -75 69 l-75 56 -2 393 -3 394 -285
-87 c-279 -86 -285 -87 -306 -69 -20 18 -21 17 -89 -36 -49 -40 -73 -53 -84
-47 -9 5 -154 81 -323 170 -169 88 -317 161 -330 161 -13 0 -126 -18 -252 -39
-127 -22 -233 -38 -237 -35 -5 2 -65 88 -135 189 l-126 185 -72 1 c-192 3
-206 2 -461 -47 -49 -9 -106 -20 -125 -23 -19 -4 -57 -3 -85 1 -71 12 -246 38
-342 52 l-83 12 0 -113 c0 -62 3 -113 7 -113 5 0 297 -68 622 -145 50 -12 68
-10 310 36 141 27 266 51 279 54 19 5 40 -19 163 -185 107 -144 146 -190 163
-190 11 0 75 7 141 16 317 40 359 45 370 41 6 -3 37 -47 69 -98 32 -52 73
-117 91 -144 l33 -51 -57 2 c-31 2 -81 5 -111 8 -30 3 -100 6 -155 7 -55 1
-104 4 -109 7 -11 6 -40 9 -228 17 -82 4 -148 11 -148 16 0 5 -9 9 -20 9 -18
0 -19 -3 -9 -22 17 -34 72 -118 76 -118 2 0 72 -11 156 -24 84 -13 217 -34
297 -46 l145 -22 210 -276 c183 -239 245 -325 245 -335 0 -2 -8 -3 -17 -3
-231 -8 -393 -22 -393 -32 0 -7 197 -123 865 -510 165 -96 301 -175 302 -176
4 -3 -38 -261 -45 -279 -7 -18 -32 -4 -972 541 -91 52 -190 110 -220 127 -30
17 -327 189 -660 382 -531 307 -809 468 -1527 885 l-173 100 0 1602 1 1601 62
36 c34 21 70 37 80 38 10 1 217 -114 460 -255z m-2252 -3821 c20 -101 -7 -250
-52 -273 -10 -6 -31 -10 -47 -10 -66 0 -74 -78 -22 -208 28 -69 47 -99 117
-175 62 -69 97 -119 139 -200 77 -150 269 -433 348 -513 56 -56 227 -91 461
-95 55 -1 103 -6 106 -11 4 -6 27 -4 59 6 78 23 133 21 165 -7 23 -19 27 -30
27 -76 -1 -30 -7 -63 -16 -76 -15 -24 -17 -24 -201 -24 -102 1 -238 -2 -303
-6 -64 -3 -178 -2 -254 3 -171 11 -192 22 -340 175 l-108 110 0 -92 0 -92 -38
23 -39 22 -30 -22 -30 -21 19 -77 c10 -42 17 -78 15 -81 -8 -7 -111 -33 -134
-33 -19 0 -25 17 -69 198 -26 108 -50 201 -54 205 -11 13 -40 -4 -46 -27 -3
-12 7 -73 21 -135 29 -127 30 -168 1 -64 -55 200 -54 198 -99 223 -77 43 -732
442 -742 453 -9 9 119 -57 270 -138 33 -18 119 -63 190 -100 72 -37 181 -94
243 -127 61 -33 112 -57 112 -55 0 3 -94 60 -209 128 -165 97 -211 129 -216
148 -4 14 -13 41 -21 60 l-14 34 -26 -31 -27 -32 -41 26 c-22 14 -74 43 -113
65 -40 23 -73 45 -73 50 0 20 169 355 199 397 40 54 74 69 190 80 72 8 100 15
131 36 22 14 40 31 40 36 0 6 7 10 15 10 9 0 18 12 22 30 3 17 7 30 8 30 2 0
26 -12 55 -27 66 -34 145 -41 206 -18 44 17 45 17 29 41 -30 47 -10 154 30
154 9 0 13 13 13 45 -1 50 18 79 67 101 48 21 53 17 66 -43z m6263 -182 c3 -5
-18 -13 -47 -19 -28 -5 -60 -13 -69 -17 -36 -15 -17 11 20 27 41 19 88 23 96
9z m-4129 -879 c44 -17 92 -34 108 -37 34 -7 34 -24 1 -85 -25 -46 -26 -51
-14 -100 15 -63 16 -182 1 -235 -17 -65 -37 -85 -80 -85 -52 0 -66 -20 -65
-89 2 -86 54 -201 125 -276 69 -73 89 -112 124 -239 40 -148 185 -481 245
-566 44 -62 203 -125 460 -181 30 -6 60 -15 65 -20 6 -4 47 -7 92 -6 69 2 86
-1 110 -19 44 -33 50 -72 20 -138 -25 -54 -27 -56 -66 -56 -22 0 -61 7 -85 15
-25 9 -63 17 -83 19 -21 3 -58 9 -83 15 -25 6 -137 28 -250 50 -294 57 -329
70 -395 138 l-54 55 -3 -32 -3 -32 -22 20 c-13 11 -23 22 -23 26 0 4 -13 21
-30 39 -16 18 -30 35 -30 38 0 4 -18 29 -40 55 -22 27 -40 54 -40 61 0 7 -4
13 -9 13 -5 0 -23 21 -40 48 -37 57 -52 75 -57 69 -5 -4 19 -148 51 -312 20
-106 20 -114 -2 -92 -10 10 -36 85 -59 174 l-41 157 -134 82 c-74 46 -141 95
-149 109 -8 14 -21 25 -27 25 -7 0 -13 7 -13 15 0 9 -6 18 -14 21 -8 3 -17 16
-20 28 -3 12 -17 28 -31 36 -14 7 -23 15 -21 18 3 2 -20 37 -50 76 -30 40 -54
76 -54 81 0 4 -9 15 -20 25 -31 27 -80 194 -80 273 0 101 56 146 194 157 97 7
142 24 174 65 11 14 24 25 30 25 6 0 13 14 17 30 5 24 1 37 -18 60 -37 44 -60
124 -61 210 0 94 16 142 67 197 107 116 221 139 382 75z m-4086 -153 c1 -90
-21 -172 -52 -194 -12 -8 -36 -15 -54 -15 -42 0 -57 -27 -51 -96 l5 -52 -56
-7 c-67 -7 -141 11 -247 60 -69 32 -74 36 -64 55 6 11 15 18 20 15 5 -3 12 6
16 20 7 30 4 29 64 8 86 -31 157 9 218 122 17 31 35 51 47 53 15 2 34 31 70
109 l50 105 17 -53 c9 -30 17 -88 17 -130z m838 -15 c-11 -11 -56 28 -66 58
-12 33 -6 89 12 123 9 17 15 4 35 -78 14 -54 22 -100 19 -103z m6787 -114 l8
-91 -54 7 c-29 4 -54 8 -56 9 -7 6 11 145 19 145 5 0 9 -12 10 -27 2 -73 16
-63 34 23 17 78 20 85 26 57 3 -18 10 -73 13 -123z m-6596 5 c65 -20 126 -75
141 -130 12 -44 14 -88 5 -97 -3 -4 -6 -51 -7 -105 -2 -90 -5 -105 -35 -166
-22 -44 -45 -76 -67 -89 -31 -21 -33 -25 -39 -102 -5 -69 -3 -86 15 -123 11
-23 35 -54 52 -68 50 -41 281 -238 494 -422 l52 -45 36 22 c19 12 35 26 35 31
0 5 9 9 19 9 24 0 251 205 251 226 0 3 -34 -13 -75 -35 -41 -23 -77 -41 -80
-41 -3 0 -5 52 -5 115 l0 115 44 0 c23 0 71 3 105 6 l61 7 0 -52 c0 -28 4 -51
8 -51 16 0 69 67 96 120 31 62 140 185 155 175 16 -9 13 -37 -5 -63 -35 -51 5
-40 107 28 66 45 119 63 119 42 0 -4 -29 -36 -64 -71 l-64 -63 19 -42 c10 -22
19 -55 19 -73 0 -39 -38 -71 -132 -111 -55 -24 -84 -49 -233 -201 -218 -223
-321 -323 -348 -338 -31 -18 -103 -16 -140 4 -18 9 -55 32 -84 50 -35 24 -58
33 -72 28 -11 -3 -82 -40 -157 -82 l-136 -76 3 -121 4 -121 -114 -19 c-128
-21 -122 -24 -140 60 -7 29 -16 56 -20 59 -5 2 -18 -6 -31 -20 l-22 -24 27
-116 c15 -64 25 -119 22 -121 -2 -2 -19 50 -38 117 l-34 122 -175 106 c-96 59
-274 166 -395 240 -213 129 -297 185 -185 123 135 -74 803 -422 806 -419 2 1
-67 45 -152 96 -100 60 -159 102 -164 117 -5 12 -16 53 -24 91 -8 37 -31 127
-50 198 -39 148 -56 258 -59 383 -2 78 1 93 26 140 15 30 27 60 27 67 0 7 22
27 49 44 79 51 102 123 99 316 -1 109 0 116 31 179 44 89 123 153 218 175 60
14 145 12 201 -4z m7115 -192 c80 -55 80 -61 15 -157 -23 -33 -50 -81 -60
-106 -34 -80 -42 -91 -71 -106 -41 -22 -84 -10 -103 29 -34 64 2 253 59 317
25 28 76 70 86 70 3 0 36 -21 74 -47z m-6073 -111 c52 -27 221 -116 375 -196
154 -80 295 -154 312 -163 32 -17 32 -17 13 -38 -19 -20 -19 -22 10 -155 16
-73 28 -135 26 -137 -1 -2 -20 59 -41 135 l-38 138 -166 101 c-453 273 -637
385 -646 395 -5 6 6 2 25 -9 19 -11 78 -43 130 -71z m-2965 -527 c72 -38 182
-96 245 -130 63 -33 162 -85 220 -114 58 -30 109 -57 114 -62 6 -5 3 -16 -7
-27 -16 -18 -16 -26 8 -137 14 -65 24 -119 22 -121 -2 -2 -19 51 -38 118 l-34
122 -200 121 c-110 66 -292 176 -405 244 -226 137 -269 167 -140 99 47 -25
144 -76 215 -113z m4240 -210 c83 -43 184 -96 225 -118 66 -35 180 -95 289
-151 l33 -18 -20 -21 -20 -22 29 -129 c16 -71 28 -131 26 -132 -2 -2 -18 49
-36 114 -18 64 -34 125 -37 134 -5 15 -100 75 -599 375 -208 126 -257 161
-125 91 47 -25 153 -80 235 -123z m-294 -71 c11 -43 22 -87 26 -98 5 -18 4
-18 -25 -1 -34 21 -52 53 -52 94 0 29 19 95 26 88 2 -2 13 -39 25 -83z m-2712
-274 c44 -88 78 -160 75 -160 -11 0 -254 142 -254 148 0 19 86 172 96 172 2 0
39 -72 83 -160z m2681 -28 c89 -42 99 -56 110 -157 17 -151 22 -137 -81 -195
-50 -28 -92 -50 -93 -48 -5 11 7 429 12 426 4 -2 27 -14 52 -26z m-3814 -190
c-9 -85 -41 -166 -82 -208 -53 -52 -59 -47 -58 54 0 48 1 94 2 103 1 9 29 44
62 78 33 34 60 68 61 74 0 7 5 1 11 -13 5 -14 7 -52 4 -88z m3312 -218 l2 -59
-201 -115 c-204 -116 -232 -132 -326 -184 -29 -16 -53 -33 -53 -37 0 -4 24
-10 53 -14 105 -12 146 -26 172 -57 14 -16 25 -36 25 -45 0 -10 6 -14 20 -10
34 9 632 350 637 364 8 20 23 16 23 -6 0 -19 -45 -46 -290 -179 -36 -20 -114
-63 -175 -96 -60 -34 -131 -72 -157 -86 -38 -20 -48 -30 -48 -50 0 -14 -3 -48
-6 -76 l-6 -51 118 -71 c390 -231 590 -342 619 -342 37 0 65 15 418 225 l286
170 1 58 c0 31 5 57 10 57 15 0 13 -125 -2 -138 -11 -8 -331 -193 -468 -270
-25 -14 -61 -34 -80 -45 -100 -56 -126 -67 -164 -67 -43 0 -53 5 -471 250 -82
48 -175 102 -207 119 l-56 32 -6 -41 c-3 -22 -9 -58 -12 -80 -3 -22 -8 -40
-10 -40 -2 0 -29 14 -59 31 -46 26 -57 29 -76 19 -28 -15 -30 -12 -58 105 -13
52 -27 95 -32 95 -5 0 -16 -11 -25 -26 -16 -24 -16 -31 10 -146 15 -66 25
-123 23 -125 -3 -2 -19 49 -36 114 -17 65 -35 124 -39 131 -4 6 -97 67 -207
133 -536 326 -610 371 -615 377 -3 3 24 -11 60 -30 36 -19 137 -73 225 -118
88 -45 178 -93 200 -105 99 -55 335 -176 335 -171 0 2 -40 28 -90 57 -87 50
-90 53 -90 88 0 20 -3 47 -7 60 -5 20 -3 23 10 18 9 -3 60 -9 114 -12 l98 -6
290 174 290 173 3 58 c4 78 26 70 30 -10z m-5448 -45 c74 -39 204 -107 289
-151 84 -44 186 -98 225 -119 39 -21 104 -55 143 -76 l72 -37 -19 -21 c-20
-22 -20 -22 10 -155 17 -73 29 -135 27 -137 -2 -2 -21 60 -43 138 -35 130 -40
142 -69 156 -29 15 -766 461 -774 469 -13 12 19 -3 139 -67z m1495 -41 c-17
-125 -30 -197 -61 -340 -34 -157 -41 -231 -25 -257 5 -8 3 -27 -5 -47 -8 -18
-14 -36 -14 -38 0 -3 18 -15 40 -26 44 -22 49 -16 31 33 -9 24 -9 24 47 -9
108 -65 261 -104 295 -75 10 8 16 52 21 153 7 165 36 298 103 480 l25 66 90
-66 c148 -109 171 -150 188 -333 10 -111 44 -287 57 -299 10 -9 382 201 400
226 12 16 13 16 19 0 4 -10 3 -21 -2 -26 -5 -5 -97 -57 -204 -116 -107 -58
-198 -109 -202 -113 -9 -8 35 -177 61 -236 28 -64 137 -137 334 -225 61 -28
117 -56 126 -64 9 -7 42 -16 74 -19 31 -3 71 -12 87 -21 30 -14 31 -14 260
122 l230 137 0 58 c0 36 4 56 10 52 6 -3 10 -34 10 -68 l0 -62 -234 -133 -233
-133 0 -38 c0 -54 -32 -114 -66 -125 -23 -8 -42 -3 -115 31 -48 22 -103 46
-122 52 -144 49 -465 180 -507 207 -20 13 -27 12 -60 -4 -57 -29 -172 -65
-187 -59 -8 3 -27 61 -45 134 -17 70 -34 138 -37 150 -3 12 -13 24 -21 27 -7
3 -12 2 -9 -3 3 -4 -3 -16 -13 -25 -17 -15 -16 -21 10 -138 39 -171 35 -177
-11 -19 -22 74 -43 138 -47 141 -5 4 -87 54 -183 112 -330 198 -595 360 -605
370 -9 10 50 -20 240 -122 39 -21 129 -68 200 -105 72 -37 182 -95 245 -128
63 -33 111 -55 105 -50 -10 10 -382 232 -532 317 -90 52 -90 51 -45 123 11 18
101 269 160 448 18 52 80 125 107 125 12 0 14 -9 10 -42z m1509 -140 c3 -7 7
-34 10 -60 l5 -47 -109 -60 c-59 -34 -111 -61 -114 -61 -3 0 -6 52 -6 115 l0
114 58 4 c129 8 153 7 156 -5z m783 -80 c-3 -8 -6 -5 -6 6 -1 11 2 17 5 13 3
-3 4 -12 1 -19z m3886 -1079 c-18 -16 -424 -250 -596 -344 -75 -40 -94 -47
-128 -42 -27 4 -148 68 -382 203 -188 108 -359 208 -380 221 -44 28 -58 57
-45 94 9 27 2 23 548 331 96 55 180 106 186 113 15 20 24 19 24 -4 0 -14 -23
-32 -77 -62 -43 -23 -168 -92 -278 -152 -110 -61 -234 -128 -275 -150 -116
-61 -120 -64 -120 -96 0 -15 8 -35 18 -43 29 -26 733 -430 766 -440 45 -14 61
-6 416 204 l309 183 1 497 c0 388 3 497 13 501 9 3 13 -102 15 -497 2 -467 1
-501 -15 -517z m-268 979 c-75 -47 -398 -228 -407 -228 -4 0 -8 49 -8 109 l0
108 100 12 c56 6 142 11 193 12 51 0 101 4 112 9 51 22 57 8 10 -22z m-3328
-464 c24 -6 30 -27 35 -109 l3 -49 -85 -48 c-47 -26 -88 -48 -92 -48 -9 0 -11
221 -2 244 5 12 20 16 63 16 31 0 66 -3 78 -6z m-3147 -273 c0 -5 11 -12 25
-15 14 -4 25 -11 25 -16 0 -6 8 -10 18 -10 10 0 23 -5 30 -12 7 -7 12 -9 12
-4 0 4 7 1 15 -7 8 -9 19 -17 24 -19 12 -4 34 -209 24 -219 -7 -7 -202 -119
-206 -119 -1 0 -2 97 -2 215 0 198 1 215 18 215 9 0 17 -4 17 -9z m2918 -163
c-3 -7 -104 -67 -224 -133 -120 -66 -245 -135 -278 -153 -138 -76 -156 -85
-162 -79 -3 3 14 16 38 30 42 24 441 250 546 309 30 17 56 37 59 45 4 10 9 11
16 4 5 -5 7 -16 5 -23z m1222 -48 c0 -5 6 -10 14 -10 8 0 16 -7 20 -15 3 -8 9
-14 14 -13 7 3 58 -19 102 -43 8 -5 31 -16 50 -26 19 -9 41 -23 48 -30 7 -7
17 -13 21 -13 4 0 16 -8 27 -19 20 -18 23 -17 179 65 88 46 161 84 164 84 21
0 -487 -302 -646 -384 l-33 -17 0 216 c0 208 1 215 20 215 11 0 20 -4 20 -10z
m662 -652 c-2 -277 -6 -506 -10 -510 -7 -7 -466 -270 -603 -346 -88 -48 -129
-53 -192 -21 -36 19 -280 160 -617 356 -121 71 -130 79 -130 118 0 47 -47 16
492 320 137 77 248 146 248 153 0 19 24 9 28 -11 2 -10 -4 -20 -14 -24 -10 -4
-60 -31 -112 -60 -51 -29 -95 -53 -97 -53 -2 0 -42 -22 -90 -50 -48 -27 -88
-50 -90 -50 -1 0 -40 -21 -86 -46 -46 -26 -118 -64 -159 -86 -154 -81 -151
-105 25 -205 39 -22 196 -113 350 -203 169 -98 294 -164 316 -167 45 -6 35
-12 407 210 l302 180 0 492 c0 270 3 495 7 498 26 27 28 -8 25 -495z m-4922
273 c0 -14 -45 -43 -177 -116 -98 -54 -198 -109 -223 -123 -76 -42 -182 -99
-260 -140 -79 -42 -103 -71 -91 -106 6 -14 136 -95 387 -240 344 -200 383
-220 424 -219 40 0 79 20 372 194 l327 194 1 60 c0 41 3 56 11 48 5 -5 9 -37
7 -69 l-3 -59 -275 -157 c-395 -226 -406 -231 -455 -226 -42 5 -252 122 -738
410 -71 43 -88 70 -69 111 8 19 114 84 343 211 211 116 386 219 394 231 14 21
25 19 25 -4z m3820 -75 c0 -58 -2 -64 -27 -76 -16 -8 -39 -22 -53 -31 -14 -9
-54 -32 -90 -52 -36 -19 -164 -92 -285 -161 -198 -113 -225 -126 -268 -126
-44 0 -72 14 -340 170 -327 189 -401 234 -372 225 11 -3 167 -91 346 -196 346
-200 364 -208 427 -175 15 8 151 88 302 178 151 91 290 172 308 182 31 16 32
19 32 77 0 38 4 58 10 54 6 -3 10 -34 10 -69z m-2109 -144 c-29 -21 -307 -183
-413 -241 l-78 -42 0 118 0 118 67 1 c38 0 124 3 193 6 109 5 131 9 174 32 56
30 96 36 57 8z m207 -518 l-3 -505 -240 -138 c-477 -273 -440 -254 -493 -249
-38 5 -110 42 -392 206 -432 251 -420 242 -420 286 0 28 7 40 33 59 25 19 470
272 669 381 21 12 38 27 38 34 0 15 16 16 26 1 3 -6 0 -17 -7 -24 -13 -13
-282 -163 -602 -336 -106 -57 -139 -80 -144 -98 -11 -45 -31 -32 541 -366 158
-92 231 -129 260 -132 38 -4 57 5 236 112 107 64 257 153 333 198 l137 81 0
491 c0 271 3 495 7 498 3 4 10 7 15 7 4 0 7 -228 6 -506z m-48 91 c0 -71 -1
-75 -22 -75 -44 0 -91 33 -104 72 l-13 38 62 19 c34 10 65 20 70 20 4 1 7 -33
7 -74z m120 -10 c0 -12 -9 -30 -20 -40 -20 -18 -20 -17 -20 40 0 57 0 58 20
40 11 -10 20 -28 20 -40z m335 -222 c31 -56 29 -79 -7 -106 -33 -25 -96 -26
-155 -2 l-43 17 0 53 0 53 73 12 c39 7 77 14 82 15 6 2 13 4 17 4 3 1 18 -20
33 -46z"/>
<path d="M8130 11130 c-81 -16 -133 -57 -167 -131 -44 -93 -47 -87 88 -195
136 -110 151 -131 108 -153 -16 -7 -29 -17 -29 -22 0 -5 -5 -9 -11 -9 -6 0
-22 -13 -36 -30 -13 -16 -31 -30 -39 -30 -7 0 -18 -9 -24 -20 -6 -11 -15 -18
-20 -15 -11 7 42 -115 73 -165 38 -63 110 -150 124 -150 7 0 28 16 45 35 17
20 32 34 35 32 2 -2 31 22 65 55 43 41 64 55 69 46 4 -7 31 -97 60 -200 l52
-188 49 0 c27 0 65 7 86 16 38 15 92 61 92 77 0 4 -81 109 -180 233 -99 123
-182 229 -185 236 -2 7 55 61 130 121 74 60 135 113 135 117 0 17 -90 128
-148 181 -124 115 -273 179 -372 159z m239 -527 c0 -18 -2 -33 -5 -33 -3 0
-21 12 -40 27 l-36 27 34 31 33 32 6 -26 c4 -14 7 -41 8 -58z"/>
<path d="M9120 10620 c0 -41 4 -52 23 -64 12 -7 153 -89 312 -181 160 -93 358
-208 440 -255 438 -255 513 -298 543 -314 l33 -17 -3 56 -3 57 -165 95 c-91
52 -302 174 -470 270 -168 97 -394 227 -502 289 -108 63 -199 114 -202 114 -3
0 -6 -22 -6 -50z"/>
<path d="M9262 10318 l3 -52 325 -189 c179 -104 413 -241 520 -303 l195 -113
3 46 c2 25 1 51 -1 57 -3 7 -61 44 -129 83 -67 39 -300 173 -517 297 -217 124
-396 226 -398 226 -2 0 -3 -23 -1 -52z"/>
<path d="M9231 9518 c32 -63 83 -128 98 -124 9 3 123 23 254 46 l238 41 87
-49 c48 -27 132 -73 187 -102 55 -29 123 -65 150 -80 28 -15 84 -46 127 -69
l76 -41 209 64 c114 35 244 76 288 90 44 14 85 26 92 26 7 0 15 -16 19 -35 3
-19 9 -35 11 -35 5 0 190 132 243 173 l25 20 -50 -6 c-27 -3 -98 -11 -157 -18
l-107 -13 5 -26 c6 -26 3 -27 -108 -60 -62 -18 -191 -57 -287 -86 l-174 -54
-166 86 c-91 48 -234 122 -317 165 l-151 79 -179 -31 c-98 -17 -204 -34 -234
-40 -82 -14 -84 -13 -126 46 -40 55 -76 78 -53 33z"/>
<path d="M5137 5111 c-33 -97 -48 -191 -31 -191 11 0 284 155 284 162 0 6
-201 138 -211 138 -3 0 -22 -49 -42 -109z"/>
</g>
</svg>
